<mxfile host="65bd71144e">
    <diagram id="CjVUjsmgnxUAQDLTF4rW" name="Page-1">
        <mxGraphModel dx="1093" dy="783" grid="1" gridSize="10" guides="1" tooltips="1" connect="1" arrows="1" fold="1" page="1" pageScale="1" pageWidth="850" pageHeight="1100" math="0" shadow="0">
            <root>
                <mxCell id="0"/>
                <mxCell id="1" parent="0"/>
                <mxCell id="2" value="&lt;b&gt;MoveleObjekt&lt;/b&gt;&lt;br&gt;&lt;font style=&quot;font-size: 10px;&quot;&gt;&lt;i&gt;abstract&lt;/i&gt;&lt;/font&gt;&lt;hr&gt;&lt;font style=&quot;font-size: 10px;&quot;&gt;# x: float&lt;br&gt;# y: float&lt;br&gt;# speed: float&lt;br&gt;# sprite: Image&lt;/font&gt;&lt;hr&gt;&lt;font style=&quot;font-size: 10px;&quot;&gt;+ move(): void&lt;br&gt;+ update(): void&lt;br&gt;+ draw(): void&lt;/font&gt;" style="rounded=1;whiteSpace=wrap;html=1;fillColor=#d5e8d4;strokeColor=#82b366;" parent="1" vertex="1">
                    <mxGeometry x="365" width="160" height="170" as="geometry"/>
                </mxCell>
                <mxCell id="3" value="&lt;b&gt;Character&lt;/b&gt;&lt;hr&gt;&lt;font style=&quot;font-size: 10px;&quot;&gt;- health: int&lt;br&gt;- coins: int&lt;br&gt;- bottles: int&lt;/font&gt;&lt;hr&gt;&lt;font style=&quot;font-size: 10px;&quot;&gt;+ jump(): void&lt;br&gt;+ collectItem(Item): void&lt;br&gt;+ takeDamage(int): void&lt;/font&gt;" style="rounded=1;whiteSpace=wrap;html=1;fillColor=#fff2cc;strokeColor=#d6b656;" parent="1" vertex="1">
                    <mxGeometry y="180" width="160" height="220" as="geometry"/>
                </mxCell>
                <mxCell id="4" value="&lt;b&gt;EnemiesAnt&lt;/b&gt;&lt;hr&gt;&lt;font style=&quot;font-size: 10px;&quot;&gt;- damage: int&lt;br&gt;- patrolPoints: Point[]&lt;/font&gt;&lt;hr&gt;&lt;font style=&quot;font-size: 10px;&quot;&gt;+ patrol(): void&lt;br&gt;+ attack(Character): void&lt;/font&gt;" style="rounded=1;whiteSpace=wrap;html=1;fillColor=#fff2cc;strokeColor=#d6b656;" parent="1" vertex="1">
                    <mxGeometry x="680" y="190" width="160" height="120" as="geometry"/>
                </mxCell>
                <mxCell id="5" value="&lt;b&gt;Endboss&lt;/b&gt;&lt;hr&gt;&lt;font style=&quot;font-size: 10px;&quot;&gt;- health: int&lt;br&gt;- attackPattern: AttackPattern&lt;/font&gt;&lt;hr&gt;&lt;font style=&quot;font-size: 10px;&quot;&gt;+ specialAttack(): void&lt;br&gt;+ changePhase(): void&lt;/font&gt;" style="rounded=1;whiteSpace=wrap;html=1;fillColor=#fff2cc;strokeColor=#d6b656;" parent="1" vertex="1">
                    <mxGeometry x="440" y="310" width="160" height="120" as="geometry"/>
                </mxCell>
                <mxCell id="6" value="&lt;b&gt;Cloud&lt;/b&gt;&lt;hr&gt;&lt;font style=&quot;font-size: 10px;&quot;&gt;- speed: float&lt;/font&gt;&lt;hr&gt;&lt;font style=&quot;font-size: 10px;&quot;&gt;+ moveHorizontally(): void&lt;/font&gt;" style="rounded=1;whiteSpace=wrap;html=1;fillColor=#fff2cc;strokeColor=#d6b656;" parent="1" vertex="1">
                    <mxGeometry x="650" y="330" width="160" height="120" as="geometry"/>
                </mxCell>
                <mxCell id="7" value="&lt;b&gt;BackgroundObjeckt&lt;/b&gt;&lt;hr&gt;&lt;font style=&quot;font-size: 10px;&quot;&gt;- parallaxFactor: float&lt;/font&gt;&lt;hr&gt;&lt;font style=&quot;font-size: 10px;&quot;&gt;+ updatePosition(float): void&lt;/font&gt;" style="rounded=1;whiteSpace=wrap;html=1;fillColor=#fff2cc;strokeColor=#d6b656;" parent="1" vertex="1">
                    <mxGeometry y="490" width="160" height="120" as="geometry"/>
                </mxCell>
                <mxCell id="8" value="&lt;b&gt;Item&lt;/b&gt;&lt;br&gt;&lt;font style=&quot;font-size: 10px;&quot;&gt;&lt;i&gt;abstract&lt;/i&gt;&lt;/font&gt;&lt;hr&gt;&lt;font style=&quot;font-size: 10px;&quot;&gt;# value: int&lt;/font&gt;&lt;hr&gt;&lt;font style=&quot;font-size: 10px;&quot;&gt;+ collect(Character): void&lt;/font&gt;" style="rounded=1;whiteSpace=wrap;html=1;fillColor=#fff2cc;strokeColor=#d6b656;" parent="1" vertex="1">
                    <mxGeometry x="200" y="480" width="160" height="120" as="geometry"/>
                </mxCell>
                <mxCell id="9" value="&lt;b&gt;Statusbar&lt;/b&gt;&lt;hr&gt;&lt;font style=&quot;font-size: 10px;&quot;&gt;- healthBar: Rectangle&lt;br&gt;- coinCounter: Text&lt;br&gt;- bottleCounter: Text&lt;/font&gt;&lt;hr&gt;&lt;font style=&quot;font-size: 10px;&quot;&gt;+ updateHealth(int): void&lt;br&gt;+ updateCoins(int): void&lt;br&gt;+ updateBottles(int): void&lt;br&gt;+ draw(): void&lt;/font&gt;" style="rounded=1;whiteSpace=wrap;html=1;fillColor=#fff2cc;strokeColor=#d6b656;" parent="1" vertex="1">
                    <mxGeometry x="670" y="460" width="160" height="240" as="geometry"/>
                </mxCell>
                <mxCell id="19" value="&lt;b&gt;Coins&lt;/b&gt;&lt;hr&gt;&lt;font style=&quot;font-size: 10px;&quot;&gt;+ collect(Character): void&lt;/font&gt;" style="rounded=1;whiteSpace=wrap;html=1;fillColor=#fff2cc;gradientColor=#ffd966;strokeColor=#d6b656;" parent="1" vertex="1">
                    <mxGeometry x="190" y="630" width="160" height="80" as="geometry"/>
                </mxCell>
                <mxCell id="20" value="&lt;b&gt;Bottle&lt;/b&gt;&lt;hr&gt;&lt;font style=&quot;font-size: 10px;&quot;&gt;- healingAmount: int&lt;/font&gt;&lt;hr&gt;&lt;font style=&quot;font-size: 10px;&quot;&gt;+ collect(Character): void&lt;/font&gt;" style="rounded=1;whiteSpace=wrap;html=1;fillColor=#fff2cc;gradientColor=#ffd966;strokeColor=#d6b656;" parent="1" vertex="1">
                    <mxGeometry x="440" y="590" width="160" height="120" as="geometry"/>
                </mxCell>
                <mxCell id="11" value="" style="endArrow=block;endFill=1;html=1;exitX=0.5;exitY=0;exitDx=0;exitDy=0;entryX=0.5;entryY=1;entryDx=0;entryDy=0;" parent="1" source="3" target="2" edge="1">
                    <mxGeometry width="50" height="50" relative="1" as="geometry"/>
                </mxCell>
                <mxCell id="12" value="" style="endArrow=block;endFill=1;html=1;exitX=0.5;exitY=0;exitDx=0;exitDy=0;entryX=0.5;entryY=1;entryDx=0;entryDy=0;" parent="1" source="4" target="2" edge="1">
                    <mxGeometry width="50" height="50" relative="1" as="geometry"/>
                </mxCell>
                <mxCell id="13" value="" style="endArrow=block;endFill=1;html=1;exitX=0.5;exitY=0;exitDx=0;exitDy=0;entryX=0.5;entryY=1;entryDx=0;entryDy=0;" parent="1" source="5" target="2" edge="1">
                    <mxGeometry width="50" height="50" relative="1" as="geometry"/>
                </mxCell>
                <mxCell id="14" value="" style="endArrow=block;endFill=1;html=1;exitX=0.5;exitY=0;exitDx=0;exitDy=0;entryX=0.5;entryY=1;entryDx=0;entryDy=0;" parent="1" source="6" target="2" edge="1">
                    <mxGeometry width="50" height="50" relative="1" as="geometry"/>
                </mxCell>
                <mxCell id="15" value="" style="endArrow=block;endFill=1;html=1;exitX=0.5;exitY=0;exitDx=0;exitDy=0;entryX=0.5;entryY=1;entryDx=0;entryDy=0;" parent="1" source="7" target="2" edge="1">
                    <mxGeometry width="50" height="50" relative="1" as="geometry"/>
                </mxCell>
                <mxCell id="16" value="" style="endArrow=block;endFill=1;html=1;exitX=0.5;exitY=0;exitDx=0;exitDy=0;entryX=0.5;entryY=1;entryDx=0;entryDy=0;" parent="1" source="8" target="2" edge="1">
                    <mxGeometry width="50" height="50" relative="1" as="geometry"/>
                </mxCell>
                <mxCell id="17" value="" style="endArrow=block;endFill=1;html=1;exitX=0.5;exitY=0;exitDx=0;exitDy=0;entryX=0.5;entryY=1;entryDx=0;entryDy=0;" parent="1" source="19" target="8" edge="1">
                    <mxGeometry width="50" height="50" relative="1" as="geometry"/>
                </mxCell>
                <mxCell id="18" value="" style="endArrow=block;endFill=1;html=1;exitX=0.5;exitY=0;exitDx=0;exitDy=0;entryX=0.5;entryY=1;entryDx=0;entryDy=0;" parent="1" source="20" target="8" edge="1">
                    <mxGeometry width="50" height="50" relative="1" as="geometry"/>
                </mxCell>
                <mxCell id="21" value="sammelt" style="endArrow=open;endFill=0;html=1;exitX=0.5;exitY=1;exitDx=0;exitDy=0;entryX=0.5;entryY=0;entryDx=0;entryDy=0;" parent="1" source="3" target="8" edge="1">
                    <mxGeometry width="50" height="50" relative="1" as="geometry">
                        <mxPoint x="120" y="380" as="sourcePoint"/>
                        <mxPoint x="170" y="330" as="targetPoint"/>
                    </mxGeometry>
                </mxCell>
                <mxCell id="22" value="hat" style="endArrow=open;endFill=0;html=1;exitX=1;exitY=0.5;exitDx=0;exitDy=0;entryX=0;entryY=0.5;entryDx=0;entryDy=0;" parent="1" source="3" target="9" edge="1">
                    <mxGeometry width="50" height="50" relative="1" as="geometry">
                        <mxPoint x="200" y="300" as="sourcePoint"/>
                        <mxPoint x="250" y="250" as="targetPoint"/>
                    </mxGeometry>
                </mxCell>
                <mxCell id="23" value="greift an" style="endArrow=open;endFill=0;html=1;exitX=0;exitY=0.5;exitDx=0;exitDy=0;entryX=1;entryY=0.5;entryDx=0;entryDy=0;" parent="1" source="4" target="3" edge="1">
                    <mxGeometry width="50" height="50" relative="1" as="geometry">
                        <mxPoint x="320" y="300" as="sourcePoint"/>
                        <mxPoint x="370" y="250" as="targetPoint"/>
                    </mxGeometry>
                </mxCell>
                <mxCell id="24" value="bekÃ¤mpft" style="endArrow=open;endFill=0;html=1;exitX=0;exitY=0.5;exitDx=0;exitDy=0;entryX=1;entryY=0.5;entryDx=0;entryDy=0;" parent="1" source="5" target="3" edge="1">
                    <mxGeometry width="50" height="50" relative="1" as="geometry">
                        <mxPoint x="520" y="300" as="sourcePoint"/>
                        <mxPoint x="570" y="250" as="targetPoint"/>
                    </mxGeometry>
                </mxCell>
            </root>
        </mxGraphModel>
    </diagram>
</mxfile>